<svg width="55" height="56" viewBox="0 0 55 56" fill="none" xmlns="http://www.w3.org/2000/svg">
<rect y="3.46841" width="49.4366" height="52.2499" rx="24.7183" fill="url(#paint0_linear_7_26)"/>
<path d="M52.1972 26.5269C52.1972 40.1784 41.7527 51.0537 29.0986 51.0537C16.4444 51.0537 6 40.1784 6 26.5269C6 12.8753 16.4444 2 29.0986 2C41.7527 2 52.1972 12.8753 52.1972 26.5269Z" fill="#FCF4F5" stroke="url(#paint1_linear_7_26)" stroke-width="4"/>
<path d="M20.6489 35.923C19.5149 35.923 18.5069 35.644 17.6249 35.086C16.7609 34.528 16.0769 33.727 15.5729 32.683C15.0869 31.639 14.8439 30.406 14.8439 28.984C14.8439 27.544 15.0869 26.311 15.5729 25.285C16.0769 24.241 16.7609 23.44 17.6249 22.882C18.5069 22.324 19.5149 22.045 20.6489 22.045C21.4949 22.045 22.2689 22.225 22.9709 22.585C23.6909 22.927 24.2399 23.377 24.6179 23.935V18.778C24.6179 17.158 25.4189 16.348 27.0209 16.348C27.7949 16.348 28.3889 16.555 28.8029 16.969C29.2169 17.383 29.4239 17.986 29.4239 18.778V33.439C29.4239 35.059 28.6319 35.869 27.0479 35.869C25.6259 35.869 24.8429 35.194 24.6989 33.844C24.3389 34.474 23.7899 34.978 23.0519 35.356C22.3319 35.734 21.5309 35.923 20.6489 35.923ZM22.1879 32.386C22.9079 32.386 23.5019 32.116 23.9699 31.576C24.4379 31.036 24.6719 30.172 24.6719 28.984C24.6719 27.778 24.4379 26.914 23.9699 26.392C23.5019 25.852 22.9079 25.582 22.1879 25.582C21.4499 25.582 20.8469 25.852 20.3789 26.392C19.9109 26.914 19.6769 27.778 19.6769 28.984C19.6769 30.172 19.9109 31.036 20.3789 31.576C20.8469 32.116 21.4499 32.386 22.1879 32.386ZM37.635 35.923C36.825 35.923 36.015 35.86 35.205 35.734C34.395 35.608 33.657 35.401 32.991 35.113C32.433 34.897 32.064 34.582 31.884 34.168C31.722 33.754 31.704 33.34 31.83 32.926C31.974 32.512 32.226 32.197 32.586 31.981C32.946 31.765 33.378 31.747 33.882 31.927C34.62 32.197 35.295 32.395 35.907 32.521C36.519 32.629 37.104 32.683 37.662 32.683C38.328 32.683 38.805 32.593 39.093 32.413C39.381 32.215 39.525 31.963 39.525 31.657C39.525 31.387 39.426 31.189 39.228 31.063C39.048 30.919 38.787 30.811 38.445 30.739L35.448 30.253C34.332 30.073 33.468 29.668 32.856 29.038C32.244 28.408 31.938 27.589 31.938 26.581C31.938 25.645 32.199 24.844 32.721 24.178C33.243 23.494 33.972 22.972 34.908 22.612C35.844 22.234 36.915 22.045 38.121 22.045C38.931 22.045 39.669 22.108 40.335 22.234C41.001 22.36 41.649 22.567 42.279 22.855C42.765 23.053 43.071 23.359 43.197 23.773C43.341 24.187 43.332 24.601 43.17 25.015C43.026 25.411 42.765 25.717 42.387 25.933C42.027 26.131 41.586 26.131 41.064 25.933C40.47 25.699 39.939 25.528 39.471 25.42C39.021 25.312 38.598 25.258 38.202 25.258C37.464 25.258 36.942 25.366 36.636 25.582C36.33 25.78 36.177 26.023 36.177 26.311C36.177 26.797 36.51 27.094 37.176 27.202L40.173 27.715C41.325 27.895 42.207 28.291 42.819 28.903C43.449 29.497 43.764 30.307 43.764 31.333C43.764 32.791 43.206 33.925 42.09 34.735C40.974 35.527 39.489 35.923 37.635 35.923Z" fill="#1D2D46"/>
<defs>
<linearGradient id="paint0_linear_7_26" x1="10" y1="4.22762" x2="83.4843" y2="52.2115" gradientUnits="userSpaceOnUse">
<stop stop-color="#FE546F"/>
<stop offset="1" stop-color="#FE546F" stop-opacity="0.4"/>
</linearGradient>
<linearGradient id="paint1_linear_7_26" x1="12" y1="6.34144" x2="81.7177" y2="64.8658" gradientUnits="userSpaceOnUse">
<stop stop-color="#FE546F"/>
<stop offset="1" stop-color="#FE546F" stop-opacity="0.4"/>
</linearGradient>
</defs>
</svg>
