<svg width="63" height="63" viewBox="0 0 63 63" fill="none" xmlns="http://www.w3.org/2000/svg">
<g filter="url(#filter0_b_17_99)">
<rect x="1.52588e-05" y="19.0683" width="47.7858" height="47.7858" rx="4" transform="rotate(-23.518 1.52588e-05 19.0683)" fill="url(#paint0_linear_17_99)" fill-opacity="0.05"/>
<rect x="0.986994" y="19.4567" width="46.2858" height="46.2858" rx="3.25" transform="rotate(-23.518 0.986994 19.4567)" stroke="url(#paint1_linear_17_99)" stroke-opacity="0.68" stroke-width="1.5"/>
</g>
<mask id="mask0_17_99" style="mask-type:alpha" maskUnits="userSpaceOnUse" x="17" y="20" width="29" height="23">
<path fill-rule="evenodd" clip-rule="evenodd" d="M33.954 20.2723C33.4426 20.0619 32.8579 20.3049 32.648 20.815C32.4381 21.3251 32.6824 21.9092 33.1938 22.1196L43.6549 26.4235L39.7113 36.9967C39.5186 37.5136 39.7823 38.0892 40.3003 38.2825C40.8184 38.4758 41.3947 38.2135 41.5874 37.6966L45.8686 26.2182C46.0569 25.7135 45.81 25.1501 45.3107 24.9446L33.954 20.2723ZM24.0867 26.0833C24.2794 25.5664 24.0157 24.9907 23.4977 24.7975C22.9796 24.6042 22.4033 24.8665 22.2106 25.3833L17.9293 36.8618C17.7411 37.3665 17.9879 37.9299 18.4873 38.1354L29.844 42.8077C30.3554 43.0181 30.9401 42.7751 31.15 42.265C31.3599 41.7549 31.1155 41.1708 30.6042 40.9604L20.143 36.6565L24.0867 26.0833Z" fill="black"/>
</mask>
<g mask="url(#mask0_17_99)">
<rect x="7.37331" y="20.7046" width="35.9663" height="36.4374" transform="rotate(-23.518 7.37331 20.7046)" fill="url(#paint2_linear_17_99)"/>
</g>
<defs>
<filter id="filter0_b_17_99" x="-0.737114" y="-0.737137" width="64.359" height="64.359" filterUnits="userSpaceOnUse" color-interpolation-filters="sRGB">
<feFlood flood-opacity="0" result="BackgroundImageFix"/>
<feGaussianBlur in="BackgroundImage" stdDeviation="1"/>
<feComposite in2="SourceAlpha" operator="in" result="effect1_backgroundBlur_17_99"/>
<feBlend mode="normal" in="SourceGraphic" in2="effect1_backgroundBlur_17_99" result="shape"/>
</filter>
<linearGradient id="paint0_linear_17_99" x1="1.57003" y1="22.4582" x2="45.127" y2="64.043" gradientUnits="userSpaceOnUse">
<stop stop-color="#FE546F"/>
<stop offset="1" stop-color="#007BFF"/>
</linearGradient>
<linearGradient id="paint1_linear_17_99" x1="1.52588e-05" y1="19.0683" x2="47.7858" y2="66.854" gradientUnits="userSpaceOnUse">
<stop stop-color="#FE546F"/>
<stop offset="1" stop-color="#007BFF"/>
</linearGradient>
<linearGradient id="paint2_linear_17_99" x1="3.57853" y1="16.7454" x2="47.8343" y2="63.4543" gradientUnits="userSpaceOnUse">
<stop stop-color="#FE546F"/>
<stop offset="1" stop-color="#007BFF"/>
</linearGradient>
</defs>
</svg>
