<svg width="481" height="419" viewBox="0 0 481 419" fill="none" xmlns="http://www.w3.org/2000/svg">
<path d="M288.055 16.5313L271.332 7.67041C252.945 -2.07175 230.197 3.11776 217.854 19.8702L206.628 35.1071C198.515 46.1188 185.338 52.2216 171.693 51.2874L152.811 49.9946C132.051 48.5732 113.381 62.5666 108.919 82.8909L104.861 101.377C101.928 114.736 92.3725 125.671 79.5265 130.368L61.7514 136.866C42.2084 144.012 30.8435 164.389 35.0341 184.771L38.8457 203.309C41.6003 216.707 37.3185 230.583 27.4934 240.098L13.8984 253.265C-1.04877 267.741 -3.14284 290.98 8.97558 307.895L19.9977 323.28C27.9634 334.399 29.6956 348.817 24.5903 361.506L17.5261 379.064C9.75922 398.368 17.2981 420.45 35.2489 430.973L51.5759 440.545C63.3752 447.463 70.822 459.93 71.3192 473.598L72.0072 492.512C72.7636 513.306 88.632 530.412 109.311 532.725L128.12 534.828C141.713 536.349 153.586 544.709 159.6 556.993L167.921 573.992C177.07 592.681 198.524 601.854 218.357 595.555L236.395 589.827C249.431 585.687 263.678 588.495 274.169 597.271L288.684 609.416C304.644 622.768 327.974 622.421 343.53 608.601L357.679 596.031C367.904 586.947 382.062 583.717 395.215 587.468L413.415 592.658C433.426 598.365 454.598 588.559 463.188 569.607L471 552.369C476.647 539.911 488.267 531.202 501.809 529.278L520.546 526.617C541.148 523.691 556.501 506.122 556.64 485.314L556.766 466.389C556.857 452.711 563.93 440.029 575.519 432.764L591.554 422.711C609.185 411.659 616.065 389.364 607.728 370.299L600.145 352.958C594.666 340.426 595.969 325.963 603.601 314.613L614.161 298.907C625.772 281.639 622.989 258.473 607.618 244.447L593.638 231.69C583.535 222.47 578.843 208.728 581.198 195.254L584.458 176.611C588.041 156.114 576.076 136.083 556.329 129.521L538.369 123.553C525.39 119.24 515.513 108.594 512.185 95.3271L507.58 76.97C502.517 56.7872 483.439 43.3545 462.73 45.3917L443.895 47.2446C430.283 48.5837 416.931 42.8749 408.495 32.1091L396.821 17.2122C383.986 0.833713 361.094 -3.67796 343.005 6.60595L326.552 15.9596C314.661 22.7194 300.141 22.935 288.055 16.5313Z" stroke="url(#paint0_linear_15_2)" stroke-opacity="0.26" stroke-width="2"/>
<defs>
<linearGradient id="paint0_linear_15_2" x1="132.5" y1="50" x2="351.5" y2="308" gradientUnits="userSpaceOnUse">
<stop stop-color="#FE546F"/>
<stop offset="1" stop-color="#007BFF"/>
</linearGradient>
</defs>
</svg>
