<svg width="857" height="698" viewBox="0 0 857 698" fill="none" xmlns="http://www.w3.org/2000/svg">
<g opacity="0.61" filter="url(#filter0_f_12_35)">
<path fill-rule="evenodd" clip-rule="evenodd" d="M190.729 740.675C133.088 628.875 56.6739 502.056 97.2202 382.986C137.772 263.898 270.873 198.208 389.609 156.637C489.496 121.665 595.062 183.012 700.303 171.838C805.522 160.666 899.803 60.2301 1000.81 91.7391C1102.13 123.345 1151.64 236.258 1203.57 328.826C1254.48 419.594 1320.85 518.709 1297.16 620.052C1273.74 720.299 1143.05 750.797 1085.07 835.871C1026.18 922.302 1047.32 1060.18 959.038 1116.26C871.144 1172.09 753.79 1136.61 653.044 1110.3C557.836 1085.43 476.849 1031.69 399.991 970.237C317.447 904.243 239.159 834.608 190.729 740.675Z" fill="url(#paint0_linear_12_35)" fill-opacity="0.5"/>
</g>
<defs>
<filter id="filter0_f_12_35" x="0.83638" y="0.647736" width="1386.27" height="1230.23" filterUnits="userSpaceOnUse" color-interpolation-filters="sRGB">
<feFlood flood-opacity="0" result="BackgroundImageFix"/>
<feBlend mode="normal" in="SourceGraphic" in2="BackgroundImageFix" result="shape"/>
<feGaussianBlur stdDeviation="42.5" result="effect1_foregroundBlur_12_35"/>
</filter>
<linearGradient id="paint0_linear_12_35" x1="854.87" y1="1151.89" x2="334.842" y2="567.961" gradientUnits="userSpaceOnUse">
<stop stop-color="#007BFF"/>
<stop offset="0.99" stop-color="#FBEEEE"/>
</linearGradient>
</defs>
</svg>
