<svg width="52" height="53" viewBox="0 0 52 53" fill="none" xmlns="http://www.w3.org/2000/svg">
<g filter="url(#filter0_b_17_116)">
<rect x="0.227798" y="9.90276" width="43.3568" height="43.3568" rx="4" transform="rotate(-12.0692 0.227798 9.90276)" fill="url(#paint0_linear_17_116)" fill-opacity="0.05"/>
<rect x="1.11804" y="10.4794" width="41.8568" height="41.8568" rx="3.25" transform="rotate(-12.0692 1.11804 10.4794)" stroke="url(#paint1_linear_17_116)" stroke-opacity="0.68" stroke-width="1.5"/>
</g>
<mask id="mask0_17_116" style="mask-type:alpha" maskUnits="userSpaceOnUse" x="15" y="11" width="22" height="29">
<path fill-rule="evenodd" clip-rule="evenodd" d="M19.9819 14.9051C19.0368 15.1071 18.2127 15.6643 17.6883 16.4473C17.1644 17.2294 16.9823 18.1721 17.1739 19.0684C17.3656 19.9646 17.9173 20.7504 18.7152 21.2499C19.5139 21.75 20.4939 21.9214 21.439 21.7193L24.9755 20.9631L23.5185 14.1489L19.9819 14.9051ZM28.2217 28.9714C28.2244 28.973 28.227 28.9747 28.2297 28.9764C28.7918 29.3283 29.4197 29.5674 30.0771 29.6811C30.7344 29.7948 31.4092 29.7811 32.0631 29.6413C32.7171 29.5014 33.3385 29.238 33.8918 28.8654C34.4452 28.4928 34.9204 28.0179 35.2895 27.4669C35.6586 26.9158 35.9143 26.2993 36.0408 25.6522C36.1673 25.0051 36.1619 24.3407 36.0244 23.6975C35.8868 23.0542 35.6201 22.4458 35.24 21.907C34.8599 21.3682 34.3744 20.9102 33.8123 20.5582C33.4864 20.3542 33.1384 20.1881 32.7753 20.0623C33.0552 19.7991 33.3048 19.5053 33.5188 19.1858C33.8879 18.6347 34.1436 18.0182 34.2701 17.3711C34.3966 16.724 34.3912 16.0596 34.2537 15.4164C34.1162 14.7731 33.8494 14.1647 33.4693 13.6259C33.0893 13.0871 32.6038 12.6291 32.0416 12.2771C31.4795 11.9252 30.8517 11.6861 30.1943 11.5724C29.5369 11.4587 28.8622 11.4724 28.2082 11.6122L23.9382 12.5252L19.6683 13.4382C18.3485 13.7204 17.187 14.5002 16.442 15.6126C15.6963 16.7259 15.4291 18.0819 15.7071 19.382C15.9851 20.6821 16.7834 21.8102 17.9192 22.5213C18.2469 22.7264 18.595 22.8921 18.9561 23.0172C18.6777 23.279 18.4278 23.5725 18.2126 23.8937C17.467 25.007 17.1998 26.363 17.4777 27.6631C17.7557 28.9632 18.5541 30.0913 19.6898 30.8024C20.0175 31.0076 20.3656 31.1732 20.7267 31.2983C20.4483 31.5601 20.1984 31.8536 19.9833 32.1748C19.2376 33.2881 18.9704 34.6441 19.2484 35.9442C19.5264 37.2443 20.3248 38.3724 21.4605 39.0835C22.5953 39.794 23.9741 40.0306 25.2939 39.7484C26.6137 39.4662 27.7752 38.6864 28.5202 37.574C29.2659 36.4607 29.5331 35.1046 29.2551 33.8046L28.3698 29.664L28.2217 28.9714ZM25.2891 22.43L26.0176 25.8371L26.7461 29.2442L23.2096 30.0004C22.2645 30.2025 21.2846 30.0311 20.4858 29.531C19.6879 29.0315 19.1362 28.2457 18.9446 27.3495C18.753 26.4532 18.9351 25.5105 19.4589 24.7284C19.9834 23.9454 20.8075 23.3882 21.7526 23.1862L25.2891 22.43ZM27.0598 30.7111L23.5233 31.4673C22.5782 31.6693 21.754 32.2265 21.2296 33.0095C20.7058 33.7916 20.5236 34.7344 20.7152 35.6306C20.9069 36.5268 21.4586 37.3126 22.2565 37.8121C23.0553 38.3122 24.0352 38.4836 24.9803 38.2815C25.9254 38.0794 26.7495 37.5223 27.2739 36.7393C27.7978 35.9571 27.9799 35.0144 27.7883 34.1182L27.0598 30.7111ZM27.4845 25.5235C27.5795 25.9677 27.7638 26.3889 28.0277 26.763C28.2917 27.1372 28.6304 27.4575 29.0257 27.705C29.421 27.9525 29.865 28.1221 30.3327 28.203C30.8005 28.2839 31.282 28.2744 31.7495 28.1744C32.217 28.0745 32.6603 27.8863 33.0541 27.6212C33.4478 27.3561 33.7836 27.0197 34.0432 26.6322C34.3027 26.2447 34.4808 25.8138 34.5686 25.3644C34.6565 24.9151 34.6525 24.4554 34.5575 24.0111C34.4625 23.5669 34.2781 23.1457 34.0142 22.7716C33.7503 22.3974 33.4115 22.077 33.0163 21.8296C32.621 21.5821 32.177 21.4125 31.7093 21.3316C31.2415 21.2506 30.76 21.2602 30.2925 21.3602C29.825 21.4601 29.3817 21.6483 28.9879 21.9134C28.5942 22.1785 28.2584 22.5149 27.9988 22.9024C27.7393 23.2899 27.5612 23.7208 27.4733 24.1702C27.3855 24.6195 27.3895 25.0792 27.4845 25.5235ZM29.9788 19.8933C30.4463 19.7934 30.8897 19.6052 31.2834 19.3401C31.6772 19.075 32.013 18.7386 32.2725 18.3511C32.532 17.9636 32.7101 17.5327 32.798 17.0833C32.8858 16.634 32.8818 16.1743 32.7869 15.73C32.6919 15.2858 32.5075 14.8646 32.2436 14.4905C31.9796 14.1163 31.6409 13.7959 31.2456 13.5485C30.8503 13.301 30.4063 13.1314 29.9386 13.0505C29.4708 12.9695 28.9893 12.9791 28.5218 13.0791L24.9853 13.8352L26.4423 20.6495L29.9788 19.8933Z" fill="black"/>
</mask>
<g mask="url(#mask0_17_116)">
<rect x="3.7542" y="11.4224" width="36.2927" height="37.2" transform="rotate(-12.0692 3.7542 11.4224)" fill="url(#paint2_linear_17_116)"/>
</g>
<defs>
<filter id="filter0_b_17_116" x="-1.02507" y="-0.41571" width="53.9698" height="53.9698" filterUnits="userSpaceOnUse" color-interpolation-filters="sRGB">
<feFlood flood-opacity="0" result="BackgroundImageFix"/>
<feGaussianBlur in="BackgroundImage" stdDeviation="1"/>
<feComposite in2="SourceAlpha" operator="in" result="effect1_backgroundBlur_17_116"/>
<feBlend mode="normal" in="SourceGraphic" in2="effect1_backgroundBlur_17_116" result="shape"/>
</filter>
<linearGradient id="paint0_linear_17_116" x1="1.6523" y1="12.9785" x2="41.1722" y2="50.7091" gradientUnits="userSpaceOnUse">
<stop stop-color="#FE546F"/>
<stop offset="1" stop-color="#007BFF"/>
</linearGradient>
<linearGradient id="paint1_linear_17_116" x1="0.227798" y1="9.90276" x2="43.5846" y2="53.2596" gradientUnits="userSpaceOnUse">
<stop stop-color="#FE546F"/>
<stop offset="1" stop-color="#007BFF"/>
</linearGradient>
<linearGradient id="paint2_linear_17_116" x1="4.04029" y1="10.5211" x2="46.0034" y2="50.4276" gradientUnits="userSpaceOnUse">
<stop stop-color="#FE546F"/>
<stop offset="1" stop-color="#007BFF"/>
</linearGradient>
</defs>
</svg>
