<svg width="39" height="39" viewBox="0 0 39 39" fill="none" xmlns="http://www.w3.org/2000/svg">
<g filter="url(#filter0_b_17_144)">
<rect x="0.710831" y="27.7223" width="29.0071" height="29.0071" rx="4" transform="rotate(-67.7646 0.710831 27.7223)" fill="url(#paint0_linear_17_144)" fill-opacity="0.05"/>
<rect x="1.68887" y="27.3119" width="27.5071" height="27.5071" rx="3.25" transform="rotate(-67.7646 1.68887 27.3119)" stroke="url(#paint1_linear_17_144)" stroke-opacity="0.68" stroke-width="1.5"/>
</g>
<mask id="mask0_17_144" style="mask-type:alpha" maskUnits="userSpaceOnUse" x="11" y="10" width="17" height="18">
<path d="M18.8215 21.383L13.0405 15.1246C12.8454 14.9203 12.693 14.6793 12.592 14.4155C12.491 14.1517 12.4436 13.8705 12.4523 13.5883C12.4611 13.306 12.526 13.0283 12.6431 12.7713C12.7603 12.5143 12.9274 12.2832 13.1347 12.0914C13.3421 11.8997 13.5855 11.7511 13.8508 11.6543C14.1161 11.5576 14.3981 11.5146 14.6802 11.5278C14.9623 11.5411 15.2389 11.6103 15.494 11.7315C15.7491 11.8528 15.9775 12.0235 16.166 12.2339L21.9622 18.4855" stroke="black" stroke-width="1.5" stroke-linecap="round" stroke-linejoin="round"/>
<path d="M21.0327 22.957C20.9843 24.1961 21.9529 25.2356 23.1995 25.2843C24.1922 25.323 24.2612 27.1946 24.649 26.836C25.5015 26.0619 26.2293 25.0362 26.2733 23.9091C26.3374 22.267 25.0463 20.871 23.3743 20.8057C23.0793 20.7932 22.7847 20.839 22.5074 20.9403C22.23 21.0416 21.9754 21.1966 21.7579 21.3964C21.5405 21.5962 21.3645 21.8368 21.2401 22.1046C21.1156 22.3723 21.0452 22.662 21.0327 22.957V22.957Z" stroke="black" stroke-width="1.5" stroke-linecap="round" stroke-linejoin="round"/>
</mask>
<g mask="url(#mask0_17_144)">
<rect x="2.88026" y="26.3464" width="24.2809" height="24.888" transform="rotate(-67.7646 2.88026 26.3464)" fill="url(#paint2_linear_17_144)"/>
</g>
<defs>
<filter id="filter0_b_17_144" x="-0.0740204" y="0.0874481" width="39.3964" height="39.3964" filterUnits="userSpaceOnUse" color-interpolation-filters="sRGB">
<feFlood flood-opacity="0" result="BackgroundImageFix"/>
<feGaussianBlur in="BackgroundImage" stdDeviation="1"/>
<feComposite in2="SourceAlpha" operator="in" result="effect1_backgroundBlur_17_144"/>
<feBlend mode="normal" in="SourceGraphic" in2="effect1_backgroundBlur_17_144" result="shape"/>
</filter>
<linearGradient id="paint0_linear_17_144" x1="12.5206" y1="23.3808" x2="24.2703" y2="67.7367" gradientUnits="userSpaceOnUse">
<stop stop-color="#FE546F"/>
<stop offset="1" stop-color="#007BFF"/>
</linearGradient>
<linearGradient id="paint1_linear_17_144" x1="0.710831" y1="27.7223" x2="29.7179" y2="56.7294" gradientUnits="userSpaceOnUse">
<stop stop-color="#FE546F"/>
<stop offset="1" stop-color="#007BFF"/>
</linearGradient>
<linearGradient id="paint2_linear_17_144" x1="13.5402" y1="21.2593" x2="23.6477" y2="78.9947" gradientUnits="userSpaceOnUse">
<stop stop-color="#FE546F"/>
<stop offset="1" stop-color="#007BFF"/>
</linearGradient>
</defs>
</svg>
